<svg width="53" height="66" viewBox="0 0 53 66" fill="none" xmlns="http://www.w3.org/2000/svg">
<path d="M9.45997 43.5001C9.85307 43.1456 10.0896 42.6497 10.1177 42.1211C10.1458 41.5925 9.96325 41.0743 9.60997 40.6801C6.45641 37.1573 4.5217 32.7121 4.09255 28.0035C3.66341 23.2949 4.76265 18.5732 7.22739 14.5383C9.69213 10.5034 13.3912 7.3699 17.7765 5.60215C22.1617 3.83441 26.9998 3.52649 31.5738 4.72402C36.1478 5.92155 40.2143 8.56082 43.1707 12.2507C46.1271 15.9406 47.8161 20.4848 47.9873 25.2098C48.1586 29.9349 46.803 34.5894 44.1215 38.4836C41.44 42.3779 37.5753 45.3046 33.1 46.8301C32.5974 47.0012 32.1833 47.3649 31.9489 47.8412C31.7145 48.3176 31.6789 48.8675 31.85 49.3701C32.021 49.8727 32.3847 50.2867 32.8611 50.5212C33.3374 50.7556 33.8874 50.7912 34.39 50.6201C39.6801 48.8191 44.2493 45.3616 47.4201 40.7599C50.591 36.1583 52.1949 30.6574 51.994 25.0727C51.7931 19.488 49.7982 14.1166 46.3049 9.75465C42.8116 5.39271 38.0058 2.27238 32.5999 0.85613C27.194 -0.560119 21.4757 -0.196912 16.2924 1.89192C11.1091 3.98075 6.73679 7.68404 3.82345 12.4529C0.910107 17.2218 -0.389191 22.8024 0.118126 28.3676C0.625444 33.9329 2.91238 39.1866 6.63997 43.3501C6.99448 43.7432 7.49037 43.9797 8.01897 44.0079C8.54757 44.036 9.06576 43.8534 9.45997 43.5001Z" fill="#8257E5"/>
<path d="M26 19C24.6155 19 23.2622 19.4105 22.111 20.1797C20.9599 20.9489 20.0627 22.0421 19.5328 23.3212C19.003 24.6003 18.8644 26.0078 19.1345 27.3656C19.4046 28.7235 20.0713 29.9708 21.0503 30.9497C22.0292 31.9287 23.2765 32.5954 24.6344 32.8655C25.9922 33.1356 27.3997 32.997 28.6788 32.4672C29.9579 31.9373 31.0511 31.0401 31.8203 29.889C32.5895 28.7378 33 27.3845 33 26C33 24.1435 32.2625 22.363 30.9498 21.0503C29.637 19.7375 27.8565 19 26 19V19ZM26 29C25.4067 29 24.8266 28.8241 24.3333 28.4944C23.8399 28.1648 23.4554 27.6962 23.2284 27.148C23.0013 26.5999 22.9419 25.9967 23.0576 25.4147C23.1734 24.8328 23.4591 24.2982 23.8787 23.8787C24.2982 23.4591 24.8328 23.1734 25.4147 23.0576C25.9967 22.9419 26.5999 23.0013 27.1481 23.2284C27.6962 23.4554 28.1648 23.8399 28.4944 24.3333C28.8241 24.8266 29 25.4067 29 26C29 26.7956 28.6839 27.5587 28.1213 28.1213C27.5587 28.6839 26.7957 29 26 29Z" fill="#8257E5"/>
<path d="M25.3001 42.0901C25.3404 42.5923 25.5688 43.0608 25.9396 43.402C26.3104 43.7431 26.7963 43.9317 27.3001 43.9301H27.4601C31.7213 43.6032 35.7246 41.7617 38.7457 38.7388C41.7667 35.7159 43.6058 31.7114 43.9301 27.4501C43.9725 26.9197 43.8025 26.3941 43.4575 25.989C43.1124 25.5839 42.6205 25.3325 42.0901 25.2901C41.5597 25.2477 41.0341 25.4177 40.629 25.7627C40.2239 26.1078 39.9725 26.5997 39.9301 27.1301C39.6773 30.4418 38.2478 33.5538 35.9002 35.9033C33.5525 38.2528 30.4416 39.6847 27.1301 39.9401C26.6027 39.9834 26.114 40.2341 25.7709 40.637C25.4279 41.04 25.2586 41.5625 25.3001 42.0901V42.0901Z" fill="#8257E5"/>
<path d="M24.5496 8.07011C20.2867 8.39472 16.2809 10.2352 13.2578 13.2583C10.2348 16.2814 8.39425 20.2872 8.06963 24.5501C8.02816 25.0777 8.19747 25.6002 8.54048 26.0032C8.88348 26.4061 9.37222 26.6568 9.89963 26.7001H10.0596C10.5635 26.7017 11.0494 26.5131 11.4202 26.172C11.7909 25.8308 12.0193 25.3623 12.0596 24.8601C12.315 21.5486 13.7469 18.4377 16.0964 16.0901C18.4459 13.7424 21.5579 12.3129 24.8696 12.0601C25.4001 12.0177 25.8919 11.7663 26.237 11.3612C26.582 10.9561 26.7521 10.4305 26.7096 9.90011C26.6672 9.36967 26.4158 8.87782 26.0107 8.53276C25.6056 8.18769 25.0801 8.01767 24.5496 8.06011V8.07011Z" fill="#8257E5"/>
<path d="M4.66962 51.14C4.46833 51.3154 4.30419 51.5292 4.18687 51.7691C4.06956 52.0089 4.00143 52.2697 3.98652 52.5363C3.97161 52.8028 4.01021 53.0696 4.10005 53.321C4.18989 53.5724 4.32915 53.8033 4.50962 54L14.5096 65.22C14.6973 65.4328 14.9281 65.6033 15.1867 65.72C15.4454 65.8367 15.7259 65.8971 16.0096 65.8971C16.2934 65.8971 16.5739 65.8367 16.8325 65.72C17.0911 65.6033 17.3219 65.4328 17.5096 65.22L27.4896 54C27.6643 53.803 27.7984 53.5736 27.8844 53.3247C27.9704 53.0759 28.0065 52.8126 27.9907 52.5498C27.9749 52.287 27.9076 52.0299 27.7924 51.7931C27.6773 51.5564 27.5166 51.3447 27.3196 51.17C27.1226 50.9953 26.8932 50.8612 26.6444 50.7752C26.3955 50.6892 26.1322 50.6531 25.8694 50.6689C25.6066 50.6847 25.3495 50.7521 25.1128 50.8672C24.876 50.9824 24.6643 51.143 24.4896 51.34L17.9996 58.61V39.25C17.9996 38.7196 17.7889 38.2109 17.4138 37.8358C17.0388 37.4607 16.5301 37.25 15.9996 37.25C15.4692 37.25 14.9605 37.4607 14.5854 37.8358C14.2103 38.2109 13.9996 38.7196 13.9996 39.25V58.61L7.48962 51.31C7.13787 50.9141 6.64343 50.6738 6.11477 50.6419C5.58611 50.6101 5.06639 50.7892 4.66962 51.14Z" fill="#8257E5"/>
</svg>
